<svg width="46" height="46" viewBox="0 0 46 46" fill="none" xmlns="http://www.w3.org/2000/svg">
<path d="M35 3C35 1.34315 36.3431 0 38 0H42.623C44.2798 0 45.623 1.34315 45.623 3V43C45.623 44.6569 44.2798 46 42.623 46H38C36.3431 46 35 44.6569 35 43V3Z" fill="#9DCD37"/>
<path d="M18 16C18 14.3431 19.3431 13 21 13H25.623C27.2798 13 28.623 14.3431 28.623 16V43C28.623 44.6569 27.2798 46 25.6229 46H21C19.3431 46 18 44.6569 18 43V16Z" fill="#9DCD37"/>
<path d="M0 31C0 29.3431 1.34315 28 3 28H7.62295C9.27981 28 10.623 29.3431 10.623 31V43C10.623 44.6569 9.2798 46 7.62295 46H3C1.34315 46 0 44.6569 0 43V31Z" fill="#9DCD37"/>
</svg>
