<svg width="82" height="75" viewBox="0 0 82 75" fill="none" xmlns="http://www.w3.org/2000/svg">
<path d="M71 3C71 1.34315 72.3431 0 74 0H78.6229C80.2798 0 81.6229 1.34315 81.6229 3V72C81.6229 73.6569 80.2798 75 78.6229 75H74C72.3431 75 71 73.6569 71 72V3Z" fill="#00FF19"/>
<path d="M53 18C53 16.3431 54.3431 15 56 15H60.623C62.2798 15 63.623 16.3431 63.623 18V72C63.623 73.6569 62.2798 75 60.623 75H56C54.3431 75 53 73.6569 53 72V18Z" fill="#00FF19"/>
<path d="M35 32C35 30.3431 36.3431 29 38 29H42.623C44.2798 29 45.623 30.3431 45.623 32V72C45.623 73.6569 44.2798 75 42.623 75H38C36.3431 75 35 73.6569 35 72V32Z" fill="#00FF19"/>
<path d="M18 45C18 43.3431 19.3431 42 21 42H25.623C27.2798 42 28.623 43.3431 28.623 45V72C28.623 73.6569 27.2798 75 25.6229 75H21C19.3431 75 18 73.6569 18 72V45Z" fill="#00FF19"/>
<path d="M0 60C0 58.3431 1.34315 57 3 57H7.62295C9.27981 57 10.623 58.3431 10.623 60V72C10.623 73.6569 9.2798 75 7.62295 75H3C1.34315 75 0 73.6569 0 72V60Z" fill="#00FF19"/>
</svg>
